HIERARCHY
ROOT hip
{
  OFFSET 5.70873 43.8894 -1.52928
  CHANNELS 6 Xposition Yposition Zposition Zrotation Xrotation Yrotation
  JOINT abdomen
  {
    OFFSET 0 5.99393 0.287273
    CHANNELS 6 Xposition Yposition Zposition Zrotation Xrotation Yrotation
    JOINT chest
    {
      OFFSET 0 6.65865 -0.856112
      CHANNELS 6 Xposition Yposition Zposition Zrotation Xrotation Yrotation
      JOINT neck
      {
        OFFSET 0 8.65624 -1.42685
        CHANNELS 6 Xposition Yposition Zposition Zrotation Xrotation Yrotation
        JOINT head
        {
          OFFSET 0 3.80999 -0.190247
          CHANNELS 6 Xposition Yposition Zposition Zrotation Xrotation Yrotation
          End Site
          {
            OFFSET 0 0 0
          }
        }
      }
      JOINT rCollar
      {
        OFFSET -1.4963 7.5744 -1.52136
        CHANNELS 6 Xposition Yposition Zposition Zrotation Xrotation Yrotation
        JOINT rShldr
        {
          OFFSET -5.47506 -0.905672 0.485692
          CHANNELS 6 Xposition Yposition Zposition Zrotation Xrotation Yrotation
          JOINT rForeArm
          {
            OFFSET -11.3069 -0.201091 0.618544
            CHANNELS 6 Xposition Yposition Zposition Zrotation Xrotation Yrotation
            JOINT rHand
            {
              OFFSET -9.61414 -0.254739 3.48553
              CHANNELS 6 Xposition Yposition Zposition Zrotation Xrotation Yrotation
              JOINT rThumb1
              {
                OFFSET 0.176263 -0.07068 1.26622
                CHANNELS 6 Xposition Yposition Zposition Zrotation Xrotation Yrotation
                JOINT rThumb2
                {
                  OFFSET -1.04683 -0.546484 1.82182
                  CHANNELS 6 Xposition Yposition Zposition Zrotation Xrotation Yrotation
                  JOINT rThumb3
                  {
                    OFFSET -0.993472 -0.621916 0.655506
                    CHANNELS 6 Xposition Yposition Zposition Zrotation Xrotation Yrotation
                    End Site
                    {
                      OFFSET -0.996134 -0.66263 0.644615
                    }
                  }
                }
              }
              JOINT rIndex1
              {
                OFFSET -2.64253 0.566363 2.4162
                CHANNELS 6 Xposition Yposition Zposition Zrotation Xrotation Yrotation
                JOINT rIndex2
                {
                  OFFSET -1.39394 -0.635138 0.899356
                  CHANNELS 6 Xposition Yposition Zposition Zrotation Xrotation Yrotation
                  JOINT rIndex3
                  {
                    OFFSET -0.622395 -0.856016 0.402182
                    CHANNELS 6 Xposition Yposition Zposition Zrotation Xrotation Yrotation
                    End Site
                    {
                      OFFSET -0.472476 -0.801802 0.34216
                    }
                  }
                }
              }
              JOINT rMid1
              {
                OFFSET -3.20814 0.514427 1.52547
                CHANNELS 6 Xposition Yposition Zposition Zrotation Xrotation Yrotation
                JOINT rMid2
                {
                  OFFSET -1.56545 -0.497974 0.68919
                  CHANNELS 6 Xposition Yposition Zposition Zrotation Xrotation Yrotation
                  JOINT rMid3
                  {
                    OFFSET -0.679943 -1.17582 0.444246
                    CHANNELS 6 Xposition Yposition Zposition Zrotation Xrotation Yrotation
                    End Site
                    {
                      OFFSET -0.343874 -0.941341 0.267611
                    }
                  }
                }
              }
              JOINT rRing1
              {
                OFFSET -3.47877 0.200518 0.597719
                CHANNELS 6 Xposition Yposition Zposition Zrotation Xrotation Yrotation
                JOINT rRing2
                {
                  OFFSET -1.28208 -0.53155 0.44672
                  CHANNELS 6 Xposition Yposition Zposition Zrotation Xrotation Yrotation
                  JOINT rRing3
                  {
                    OFFSET -0.710288 -0.970167 0.4032
                    CHANNELS 6 Xposition Yposition Zposition Zrotation Xrotation Yrotation
                    End Site
                    {
                      OFFSET -0.403228 -0.950952 0.378354
                    }
                  }
                }
              }
              JOINT rPinky1
              {
                OFFSET -3.42483 -0.278904 -0.240415
                CHANNELS 6 Xposition Yposition Zposition Zrotation Xrotation Yrotation
                JOINT rPinky2
                {
                  OFFSET -1.05787 -0.635999 0.156459
                  CHANNELS 6 Xposition Yposition Zposition Zrotation Xrotation Yrotation
                  JOINT rPinky3
                  {
                    OFFSET -0.42815 -0.754232 0.287187
                    CHANNELS 6 Xposition Yposition Zposition Zrotation Xrotation Yrotation
                    End Site
                    {
                      OFFSET -0.235717 -0.725605 0.279416
                    }
                  }
                }
              }
            }
          }
        }
      }
      JOINT lCollar
      {
        OFFSET 1.4963 7.5744 -1.52136
        CHANNELS 6 Xposition Yposition Zposition Zrotation Xrotation Yrotation
        JOINT lShldr
        {
          OFFSET 5.47506 -0.905672 0.485692
          CHANNELS 6 Xposition Yposition Zposition Zrotation Xrotation Yrotation
          JOINT lForeArm
          {
            OFFSET 11.3069 -0.201091 0.618544
            CHANNELS 6 Xposition Yposition Zposition Zrotation Xrotation Yrotation
            JOINT lHand
            {
              OFFSET 9.61414 -0.254739 3.48553
              CHANNELS 6 Xposition Yposition Zposition Zrotation Xrotation Yrotation
              JOINT lThumb1
              {
                OFFSET -0.176263 -0.07068 1.26622
                CHANNELS 6 Xposition Yposition Zposition Zrotation Xrotation Yrotation
                JOINT lThumb2
                {
                  OFFSET 1.04683 -0.546484 1.82182
                  CHANNELS 6 Xposition Yposition Zposition Zrotation Xrotation Yrotation
                  JOINT lThumb3
                  {
                    OFFSET 0.993472 -0.621916 0.655506
                    CHANNELS 6 Xposition Yposition Zposition Zrotation Xrotation Yrotation
                    End Site
                    {
                      OFFSET 0.996134 -0.66263 0.644615
                    }
                  }
                }
              }
              JOINT lIndex1
              {
                OFFSET 2.64253 0.566363 2.4162
                CHANNELS 6 Xposition Yposition Zposition Zrotation Xrotation Yrotation
                JOINT lIndex2
                {
                  OFFSET 1.39394 -0.635138 0.899356
                  CHANNELS 6 Xposition Yposition Zposition Zrotation Xrotation Yrotation
                  JOINT lIndex3
                  {
                    OFFSET 0.622395 -0.856016 0.402182
                    CHANNELS 6 Xposition Yposition Zposition Zrotation Xrotation Yrotation
                    End Site
                    {
                      OFFSET 0.472476 -0.801802 0.34216
                    }
                  }
                }
              }
              JOINT lMid1
              {
                OFFSET 3.20814 0.514427 1.52547
                CHANNELS 6 Xposition Yposition Zposition Zrotation Xrotation Yrotation
                JOINT lMid2
                {
                  OFFSET 1.56545 -0.497974 0.68919
                  CHANNELS 6 Xposition Yposition Zposition Zrotation Xrotation Yrotation
                  JOINT lMid3
                  {
                    OFFSET 0.679943 -1.17582 0.444246
                    CHANNELS 6 Xposition Yposition Zposition Zrotation Xrotation Yrotation
                    End Site
                    {
                      OFFSET 0.343874 -0.941341 0.267611
                    }
                  }
                }
              }
              JOINT lRing1
              {
                OFFSET 3.47877 0.200518 0.597719
                CHANNELS 6 Xposition Yposition Zposition Zrotation Xrotation Yrotation
                JOINT lRing2
                {
                  OFFSET 1.28208 -0.53155 0.44672
                  CHANNELS 6 Xposition Yposition Zposition Zrotation Xrotation Yrotation
                  JOINT lRing3
                  {
                    OFFSET 0.710288 -0.970167 0.4032
                    CHANNELS 6 Xposition Yposition Zposition Zrotation Xrotation Yrotation
                    End Site
                    {
                      OFFSET 0.403228 -0.950952 0.378354
                    }
                  }
                }
              }
              JOINT lPinky1
              {
                OFFSET 3.42483 -0.278904 -0.240415
                CHANNELS 6 Xposition Yposition Zposition Zrotation Xrotation Yrotation
                JOINT lPinky2
                {
                  OFFSET 1.05787 -0.635999 0.156459
                  CHANNELS 6 Xposition Yposition Zposition Zrotation Xrotation Yrotation
                  JOINT lPinky3
                  {
                    OFFSET 0.42815 -0.754232 0.287187
                    CHANNELS 6 Xposition Yposition Zposition Zrotation Xrotation Yrotation
                    End Site
                    {
                      OFFSET 0.235717 -0.725605 0.279416
                    }
                  }
                }
              }
            }
          }
        }
      }
    }
  }
  JOINT rThigh
  {
    OFFSET -4.17848 -1.02486 0.046356
    CHANNELS 6 Xposition Yposition Zposition Zrotation Xrotation Yrotation
    JOINT rShin
    {
      OFFSET 1.27155 -17.465 -0.237699
      CHANNELS 6 Xposition Yposition Zposition Zrotation Xrotation Yrotation
      JOINT rFoot
      {
        OFFSET 0.529163 -17.3815 -1.19582
        CHANNELS 6 Xposition Yposition Zposition Zrotation Xrotation Yrotation
        JOINT rToe
        {
          OFFSET -0.711591 -4.4863 4.0596
          CHANNELS 6 Xposition Yposition Zposition Zrotation Xrotation Yrotation
          End Site
          {
            OFFSET -0.869915 -1.10655 1.99006
          }
        }
      }
    }
  }
  JOINT lThigh
  {
    OFFSET 4.17848 -1.02486 0.046356
    CHANNELS 6 Xposition Yposition Zposition Zrotation Xrotation Yrotation
    JOINT lShin
    {
      OFFSET -1.27155 -17.465 -0.237699
      CHANNELS 6 Xposition Yposition Zposition Zrotation Xrotation Yrotation
      JOINT lFoot
      {
        OFFSET -0.529163 -17.3815 -1.19582
        CHANNELS 6 Xposition Yposition Zposition Zrotation Xrotation Yrotation
        JOINT lToe
        {
          OFFSET 0.711591 -4.4863 4.0596
          CHANNELS 6 Xposition Yposition Zposition Zrotation Xrotation Yrotation
          End Site
          {
            OFFSET 0.869915 -1.10655 1.99006
          }
        }
      }
    }
  }
}
MOTION
Frames:	4
Frame Time:	0.0333333
-0.181098 19.0623 9.06615 4.54634 -23.457 -1.37032 0 5.99393 0.287273 -3.40597 16.3246 0.420553 -5.55112e-017 6.65865 -0.856112 -7.42667 32.589 2.03452 0 8.65624 -1.42685 4.35336 -3.9368 5.80904 2.22045e-016 3.80999 -0.190247 6.32374 -24.0988 5.50266 -1.4963 7.5744 -1.52136 -23.8685 2.90094 22.4932 -5.47506 -0.905672 0.485692 23.9411 -44.6597 50.5396 -11.3069 -0.201091 0.618544 17.9023 -30.2435 56.026 -9.61414 -0.254739 3.48553 -13.2104 39.8539 -1.2998 0.176263 -0.07068 1.26622 -0.444579 3.92986 -10.1315 -1.04683 -0.546484 1.82182 -0.167833 0.178066 -0.502952 -0.993472 -0.621916 0.655506 -1.78096 2.06686 -5.58366 -2.64253 0.566363 2.4162 15.6358 6.5446 -8.30829 -1.39394 -0.635138 0.899356 10.0677 2.52884 -1.70276 -0.622395 -0.856016 0.402182 12.7502 3.1451 -2.22692 -3.20814 0.514427 1.52547 17.1243 7.12892 -3.95037 -1.56545 -0.497974 0.68919 25.1537 6.62406 -5.07153 -0.679943 -1.17582 0.444246 16.7023 4.67706 -3.06163 -3.47877 0.200518 0.597719 16.1463 3.46154 -3.14438 -1.28208 -0.53155 0.44672 24.6175 7.18866 -6.06092 -0.710288 -0.970167 0.4032 16.2405 5.07407 -3.67881 -3.42483 -0.278904 -0.240415 18.6672 2.57002 -4.72385 -1.05787 -0.635999 0.156459 20.7966 6.89401 -4.76365 -0.42815 -0.754232 0.287187 20.0868 6.69351 -4.56401 1.4963 7.5744 -1.52136 9.09281 5.12337 6.06367 5.47506 -0.905672 0.485692 -67.0585 0.606977 -4.80395 11.3069 -0.201091 0.618544 -32.7308 20.164 -76.7177 9.61414 -0.254739 3.48553 35.8947 37.3637 -36.5932 -0.176263 -0.07068 1.26622 -4.29564 -11.0773 -16.5217 1.04683 -0.546484 1.82182 3.33765 1.18542 6.02138 0.993472 -0.621916 0.655506 6.56657 2.72947 12.0279 2.64253 0.566363 2.4162 10.9159 -5.05588 1.38496 1.39394 -0.635138 0.899356 -7.578 4.11136 6.67312 0.622395 -0.856016 0.402182 -7.57159 4.67268 6.3226 3.20814 0.514427 1.52547 17.8807 -7.98012 -6.16661 1.56545 -0.497974 0.68919 -4.65513e-006 -5.89295e-007 -8.44292e-006 0.679943 -1.17582 0.444246 8.55926e-006 -8.89018e-006 -9.62408e-006 3.47877 0.200518 0.597719 20.0861 -12.0658 -9.117 1.28208 -0.53155 0.44672 4.13925 -1.81683 -1.83804 0.710288 -0.970167 0.4032 4.13924 -1.81675 -1.83813 3.42483 -0.278904 -0.240415 33.5132 -19.3663 -10.2827 1.05787 -0.635999 0.156459 4.10755 -1.94123 -1.7793 0.42815 -0.754232 0.287187 4.10758 -1.9413 -1.77921 -4.17848 -1.02486 0.046356 -32.9857 -11.7541 28.8286 1.27155 -17.465 -0.237699 164.612 36.5237 -142.847 0.529163 -17.3815 -1.19582 18.3873 -75.4131 31.3492 -0.711591 -4.4863 4.0596 8.02979 -25.4871 4.68098 4.17848 -1.02486 0.046356 76.8581 -79.8117 65.8655 -1.27155 -17.465 -0.237699 177.406 49.7479 160.82 -0.529163 -17.3815 -1.19582 1.02267 -21.5988 -9.88016 0.711591 -4.4863 4.0596 -0.206259 -0.180439 0.0101183 
-0.156362 18.9483 9.04195 4.54363 -23.4458 -1.3896 -4.44089e-016 5.99393 0.287273 -3.39692 15.9963 0.467377 -1.66533e-016 6.65865 -0.856112 -7.39715 31.9304 2.09842 -4.44089e-016 8.65624 -1.42685 4.12502 -3.39329 6.40849 -2.22045e-016 3.80999 -0.190247 6.42215 -23.3883 6.02493 -1.4963 7.5744 -1.52136 -23.8685 2.90093 22.4932 -5.47506 -0.905672 0.485692 24.8656 -43.3653 49.7809 -11.3069 -0.201091 0.618544 18.6825 -29.4945 57.8508 -9.61414 -0.254739 3.48553 -14.0487 40.2544 -0.54999 0.176263 -0.07068 1.26622 -0.818047 4.6482 -11.2183 -1.04683 -0.546484 1.82182 -0.192012 0.203972 -0.575747 -0.993472 -0.621916 0.655506 -2.01855 2.37555 -6.37565 -2.64253 0.566363 2.4162 18.9984 7.59096 -9.84136 -1.39394 -0.635138 0.899356 12.7648 3.1502 -2.23238 -0.622395 -0.856016 0.402182 15.3224 3.71102 -2.75479 -3.20814 0.514427 1.52547 16.6226 7.34607 -3.95252 -1.56545 -0.497974 0.68919 22.6839 6.08818 -4.45637 -0.679943 -1.17582 0.444246 16.1485 4.53861 -2.93973 -3.47877 0.200518 0.597719 15.3606 3.74737 -2.98351 -1.28208 -0.53155 0.44672 22.1367 6.60194 -5.32614 -0.710288 -0.970167 0.4032 15.6516 4.91145 -3.52251 -3.42483 -0.278904 -0.240415 16.9627 3.22278 -3.20888 -1.05787 -0.635999 0.156459 18.9855 6.37663 -4.25859 -0.42815 -0.754232 0.287187 17.7226 6.00567 -3.91566 1.4963 7.5744 -1.52136 9.09283 5.12337 6.06366 5.47506 -0.905672 0.485692 -67.2373 0.76674 -5.10646 11.3069 -0.201091 0.618544 -32.584 19.7144 -75.949 9.61414 -0.254739 3.48553 35.2379 37.4166 -35.9627 -0.176263 -0.07068 1.26622 -4.29564 -11.0774 -16.5217 1.04683 -0.546484 1.82182 3.33764 1.18542 6.02137 0.993472 -0.621916 0.655506 6.56656 2.72945 12.0279 2.64253 0.566363 2.4162 10.9159 -5.05589 1.38497 1.39394 -0.635138 0.899356 -7.578 4.11135 6.67309 0.622395 -0.856016 0.402182 -7.57159 4.67262 6.32265 3.20814 0.514427 1.52547 17.8807 -7.98012 -6.16659 1.56545 -0.497974 0.68919 -1.97054e-006 -3.11366e-006 -9.80077e-006 0.679943 -1.17582 0.444246 1.58747e-005 -1.87885e-005 3.60159e-006 3.47877 0.200518 0.597719 20.0861 -12.0659 -9.11698 1.28208 -0.53155 0.44672 4.13926 -1.81686 -1.838 0.710288 -0.970167 0.4032 4.13924 -1.81676 -1.83814 3.42483 -0.278904 -0.240415 33.5132 -19.3663 -10.2827 1.05787 -0.635999 0.156459 4.10757 -1.94125 -1.7793 0.42815 -0.754232 0.287187 4.10758 -1.94133 -1.77916 -4.17848 -1.02486 0.046356 -33.1193 -11.7809 29.2499 1.27155 -17.465 -0.237699 164.719 36.1998 -142.668 0.529163 -17.3815 -1.19582 19.5563 -75.6947 32.5173 -0.711591 -4.4863 4.0596 8.02979 -25.4872 4.681 4.17848 -1.02486 0.046356 79.694 -79.9909 68.7076 -1.27155 -17.465 -0.237699 177.391 49.4963 160.851 -0.529163 -17.3815 -1.19582 0.943668 -21.3386 -9.89305 0.711591 -4.4863 4.0596 -0.206286 -0.180453 0.0101419 
-0.125984 18.8591 9.01034 4.55508 -23.444 -1.36611 -6.66134e-016 5.99393 0.287273 -3.38658 15.7159 0.55342 -1.11022e-016 6.65865 -0.856112 -7.38084 31.3649 2.25013 0 8.65624 -1.42685 3.76001 -2.88481 7.45658 1.11022e-016 3.80999 -0.190247 6.57341 -22.5931 7.03052 -1.4963 7.5744 -1.52136 -23.8685 2.90096 22.4931 -5.47506 -0.905672 0.485692 25.6782 -42.155 48.9556 -11.3069 -0.201091 0.618544 19.4731 -28.7292 59.7044 -9.61414 -0.254739 3.48553 -14.8427 40.6571 0.144677 0.176263 -0.07068 1.26622 -1.08668 5.21724 -12.0669 -1.04683 -0.546484 1.82182 -0.210945 0.22431 -0.632803 -0.993472 -0.621916 0.655506 -2.20425 2.62306 -7.00392 -2.64253 0.566363 2.4162 21.6505 8.37183 -11.073 -1.39394 -0.635138 0.899356 14.8646 3.6122 -2.65877 -0.622395 -0.856016 0.402182 17.3389 4.13682 -3.18536 -3.20814 0.514427 1.52547 16.2307 7.51538 -3.9547 -1.56545 -0.497974 0.68919 20.7607 5.65775 -3.99739 -0.679943 -1.17582 0.444246 15.7089 4.42781 -2.84392 -3.47877 0.200518 0.597719 14.7459 3.96931 -2.85895 -1.28208 -0.53155 0.44672 20.2001 6.1271 -4.77231 -0.710288 -0.970167 0.4032 15.1903 4.78282 -3.4012 -3.42483 -0.278904 -0.240415 15.5921 3.70749 -2.02253 -1.05787 -0.635999 0.156459 17.5735 5.9611 -3.87553 -0.42815 -0.754232 0.287187 15.8812 5.44955 -3.42935 1.4963 7.5744 -1.52136 9.09284 5.12337 6.06363 5.47506 -0.905672 0.485692 -67.4558 0.963218 -5.53079 11.3069 -0.201091 0.618544 -32.4583 19.3402 -75.331 9.61414 -0.254739 3.48553 34.5728 37.6074 -35.3146 -0.176263 -0.07068 1.26622 -4.29567 -11.0774 -16.5217 1.04683 -0.546484 1.82182 3.33762 1.18539 6.02141 0.993472 -0.621916 0.655506 6.56657 2.72945 12.0279 2.64253 0.566363 2.4162 10.9159 -5.05588 1.38496 1.39394 -0.635138 0.899356 -7.57802 4.11133 6.67311 0.622395 -0.856016 0.402182 -7.57158 4.67275 6.32258 3.20814 0.514427 1.52547 17.8807 -7.98012 -6.1666 1.56545 -0.497974 0.68919 -1.56299e-005 -3.30775e-006 -1.3252e-005 0.679943 -1.17582 0.444246 -1.97179e-008 -3.09305e-005 2.97648e-005 3.47877 0.200518 0.597719 20.0861 -12.0659 -9.11698 1.28208 -0.53155 0.44672 4.13923 -1.81693 -1.83793 0.710288 -0.970167 0.4032 4.13925 -1.81676 -1.83812 3.42483 -0.278904 -0.240415 33.5132 -19.3663 -10.2827 1.05787 -0.635999 0.156459 4.10755 -1.94126 -1.77929 0.42815 -0.754232 0.287187 4.10755 -1.94125 -1.77927 -4.17848 -1.02486 0.046356 -33.2946 -11.8497 29.5869 1.27155 -17.465 -0.237699 164.798 35.9302 -142.468 0.529163 -17.3815 -1.19582 20.4688 -75.8537 33.4524 -0.711591 -4.4863 4.0596 8.02978 -25.4872 4.68103 4.17848 -1.02486 0.046356 82.0548 -80.1737 71.1416 -1.27155 -17.465 -0.237699 177.371 49.3284 160.923 -0.529163 -17.3815 -1.19582 0.888315 -21.0647 -9.89364 0.711591 -4.4863 4.0596 -0.206328 -0.180447 0.0102179 
-0.0888255 18.8229 8.96849 4.59719 -23.464 -1.24883 4.44089e-016 5.99393 0.287273 -3.37628 15.5389 0.694494 -1.11022e-016 6.65865 -0.856112 -7.38915 31.0023 2.52867 0 8.65624 -1.42685 3.25551 -2.50091 8.99873 -1.11022e-016 3.80999 -0.190247 6.7586 -21.7829 8.57958 -1.4963 7.5744 -1.52136 -23.8685 2.90093 22.4933 -5.47506 -0.905672 0.485692 26.3353 -41.219 48.4518 -11.3069 -0.201091 0.618544 20.002 -28.0533 60.9604 -9.61414 -0.254739 3.48553 -15.4911 40.9925 0.689106 0.176263 -0.07068 1.26622 -1.18986 5.45002 -12.4089 -1.04683 -0.546484 1.82182 -0.215374 0.235564 -0.66042 -0.993472 -0.621916 0.655506 -2.2785 2.72361 -7.25749 -2.64253 0.566363 2.4162 22.7273 8.67748 -11.5782 -1.39394 -0.635138 0.899356 15.7173 3.79572 -2.83768 -0.622395 -0.856016 0.402182 18.1546 4.30447 -3.36354 -3.20814 0.514427 1.52547 16.0725 7.58366 -3.95568 -1.56545 -0.497974 0.68919 19.9817 5.47009 -3.809 -0.679943 -1.17582 0.444246 15.5314 4.38286 -2.80546 -3.47877 0.200518 0.597719 14.4975 4.05857 -2.80892 -1.28208 -0.53155 0.44672 19.4249 5.92211 -4.55053 -0.710288 -0.970167 0.4032 15.0041 4.73062 -3.3525 -3.42483 -0.278904 -0.240415 15.0346 3.90273 -1.54582 -1.05787 -0.635999 0.156459 17.002 5.79891 -3.72687 -0.42815 -0.754232 0.287187 15.1392 5.22057 -3.23817 1.4963 7.5744 -1.52136 9.09285 5.12338 6.06356 5.47506 -0.905672 0.485692 -67.7369 1.20889 -6.14282 11.3069 -0.201091 0.618544 -32.3928 19.1313 -75.049 9.61414 -0.254739 3.48553 33.957 38.0298 -34.6908 -0.176263 -0.07068 1.26622 -4.29569 -11.0774 -16.5217 1.04683 -0.546484 1.82182 3.33759 1.18535 6.02144 0.993472 -0.621916 0.655506 6.56657 2.72946 12.0279 2.64253 0.566363 2.4162 10.9159 -5.05592 1.38498 1.39394 -0.635138 0.899356 -7.57804 4.1113 6.67309 0.622395 -0.856016 0.402182 -7.57158 4.67274 6.32258 3.20814 0.514427 1.52547 17.8807 -7.98013 -6.16659 1.56545 -0.497974 0.68919 2.67159e-008 -4.21959e-006 2.94563e-007 0.679943 -1.17582 0.444246 -1.98981e-006 -6.81782e-005 6.11634e-005 3.47877 0.200518 0.597719 20.0861 -12.066 -9.11694 1.28208 -0.53155 0.44672 4.13926 -1.81679 -1.83805 0.710288 -0.970167 0.4032 4.13924 -1.81678 -1.83811 3.42483 -0.278904 -0.240415 33.5132 -19.3663 -10.2827 1.05787 -0.635999 0.156459 4.10754 -1.94126 -1.7793 0.42815 -0.754232 0.287187 4.10755 -1.94124 -1.77928 -4.17848 -1.02486 0.046356 -33.5234 -11.9705 29.7223 1.27155 -17.465 -0.237699 164.821 35.7858 -142.267 0.529163 -17.3815 -1.19582 20.7653 -75.7883 33.8005 -0.711591 -4.4863 4.0596 8.02976 -25.4871 4.68106 4.17848 -1.02486 0.046356 83.198 -80.3746 72.4838 -1.27155 -17.465 -0.237699 177.343 49.3268 161.057 -0.529163 -17.3815 -1.19582 0.898749 -20.7895 -9.8783 0.711591 -4.4863 4.0596 -0.206356 -0.180546 0.0101018 
